<mxfile host="Electron" modified="2023-11-28T10:33:51.646Z" agent="Mozilla/5.0 (Windows NT 10.0; Win64; x64) AppleWebKit/537.36 (KHTML, like Gecko) draw.io/22.1.2 Chrome/114.0.5735.289 Electron/25.9.4 Safari/537.36" etag="VdiyhJn9RpRch3mAiBMS" version="22.1.2" type="device">
  <diagram name="Page-1" id="acYfCNslp4RXIbU5z5HF">
    <mxGraphModel dx="724" dy="494" grid="1" gridSize="10" guides="1" tooltips="1" connect="1" arrows="1" fold="1" page="1" pageScale="1" pageWidth="827" pageHeight="1169" math="0" shadow="0">
      <root>
        <mxCell id="0" />
        <mxCell id="1" parent="0" />
        <mxCell id="h8FOu51G0vFTDpfw8E58-1" value="Personnel" style="shape=umlLifeline;perimeter=lifelinePerimeter;whiteSpace=wrap;html=1;container=1;dropTarget=0;collapsible=0;recursiveResize=0;outlineConnect=0;portConstraint=eastwest;newEdgeStyle={&quot;curved&quot;:0,&quot;rounded&quot;:0};participant=umlActor;size=40;" vertex="1" parent="1">
          <mxGeometry x="450" y="120" width="20" height="440" as="geometry" />
        </mxCell>
        <mxCell id="h8FOu51G0vFTDpfw8E58-2" value=":système" style="shape=umlLifeline;perimeter=lifelinePerimeter;whiteSpace=wrap;html=1;container=1;dropTarget=0;collapsible=0;recursiveResize=0;outlineConnect=0;portConstraint=eastwest;newEdgeStyle={&quot;curved&quot;:0,&quot;rounded&quot;:0};" vertex="1" parent="1">
          <mxGeometry x="690" y="120" width="100" height="440" as="geometry" />
        </mxCell>
        <mxCell id="h8FOu51G0vFTDpfw8E58-5" value="1: Nouvel emprunt" style="html=1;verticalAlign=bottom;endArrow=block;curved=0;rounded=0;" edge="1" parent="1" source="h8FOu51G0vFTDpfw8E58-1" target="h8FOu51G0vFTDpfw8E58-2">
          <mxGeometry width="80" relative="1" as="geometry">
            <mxPoint x="490" y="260" as="sourcePoint" />
            <mxPoint x="570" y="260" as="targetPoint" />
            <Array as="points">
              <mxPoint x="590" y="180" />
            </Array>
          </mxGeometry>
        </mxCell>
        <mxCell id="h8FOu51G0vFTDpfw8E58-6" value="2: Affiche la liste des usagers" style="html=1;verticalAlign=bottom;endArrow=block;curved=0;rounded=0;dashed=1;" edge="1" parent="1" source="h8FOu51G0vFTDpfw8E58-2" target="h8FOu51G0vFTDpfw8E58-1">
          <mxGeometry width="80" relative="1" as="geometry">
            <mxPoint x="540" y="300" as="sourcePoint" />
            <mxPoint x="620" y="300" as="targetPoint" />
            <Array as="points">
              <mxPoint x="600" y="210" />
            </Array>
          </mxGeometry>
        </mxCell>
        <mxCell id="h8FOu51G0vFTDpfw8E58-7" value="3: Saisie le numéro de lecteur" style="html=1;verticalAlign=bottom;endArrow=block;curved=0;rounded=0;" edge="1" parent="1" source="h8FOu51G0vFTDpfw8E58-1" target="h8FOu51G0vFTDpfw8E58-2">
          <mxGeometry width="80" relative="1" as="geometry">
            <mxPoint x="540" y="300" as="sourcePoint" />
            <mxPoint x="620" y="300" as="targetPoint" />
            <Array as="points">
              <mxPoint x="590" y="240" />
            </Array>
          </mxGeometry>
        </mxCell>
        <mxCell id="h8FOu51G0vFTDpfw8E58-8" value="4: Affiche les informations du lecteur" style="html=1;verticalAlign=bottom;endArrow=block;curved=0;rounded=0;dashed=1;" edge="1" parent="1" source="h8FOu51G0vFTDpfw8E58-2" target="h8FOu51G0vFTDpfw8E58-1">
          <mxGeometry width="80" relative="1" as="geometry">
            <mxPoint x="540" y="300" as="sourcePoint" />
            <mxPoint x="620" y="300" as="targetPoint" />
            <Array as="points">
              <mxPoint x="610" y="270" />
            </Array>
          </mxGeometry>
        </mxCell>
        <mxCell id="h8FOu51G0vFTDpfw8E58-9" value="5: Saisie la référence du document" style="html=1;verticalAlign=bottom;endArrow=block;curved=0;rounded=0;" edge="1" parent="1">
          <mxGeometry x="0.0011" width="80" relative="1" as="geometry">
            <mxPoint x="460.00034482758605" y="400" as="sourcePoint" />
            <mxPoint x="739.6900000000003" y="400" as="targetPoint" />
            <Array as="points" />
            <mxPoint as="offset" />
          </mxGeometry>
        </mxCell>
        <mxCell id="h8FOu51G0vFTDpfw8E58-10" value="6: Affiche les informations du document" style="html=1;verticalAlign=bottom;endArrow=block;curved=0;rounded=0;dashed=1;" edge="1" parent="1">
          <mxGeometry width="80" relative="1" as="geometry">
            <mxPoint x="739.5" y="429.9999999999999" as="sourcePoint" />
            <mxPoint x="459.81034482758605" y="429.9999999999999" as="targetPoint" />
            <Array as="points">
              <mxPoint x="610" y="430" />
            </Array>
          </mxGeometry>
        </mxCell>
        <mxCell id="h8FOu51G0vFTDpfw8E58-12" value="5: Correction des informations" style="html=1;verticalAlign=bottom;endArrow=block;curved=0;rounded=0;" edge="1" parent="1">
          <mxGeometry width="80" relative="1" as="geometry">
            <mxPoint x="459.81034482758605" y="300.0000000000001" as="sourcePoint" />
            <mxPoint x="739.5" y="300.0000000000001" as="targetPoint" />
          </mxGeometry>
        </mxCell>
        <mxCell id="h8FOu51G0vFTDpfw8E58-13" value="5.a: Confirmation" style="html=1;verticalAlign=bottom;endArrow=block;curved=0;rounded=0;" edge="1" parent="1">
          <mxGeometry width="80" relative="1" as="geometry">
            <mxPoint x="459.81034482758605" y="330.0000000000001" as="sourcePoint" />
            <mxPoint x="739.5" y="330.0000000000001" as="targetPoint" />
          </mxGeometry>
        </mxCell>
        <mxCell id="h8FOu51G0vFTDpfw8E58-14" value="7: Validation" style="html=1;verticalAlign=bottom;endArrow=block;curved=0;rounded=0;" edge="1" parent="1">
          <mxGeometry x="0.0025" width="80" relative="1" as="geometry">
            <mxPoint x="459.81034482758605" y="460" as="sourcePoint" />
            <mxPoint x="739.5" y="460" as="targetPoint" />
            <mxPoint as="offset" />
          </mxGeometry>
        </mxCell>
        <mxCell id="h8FOu51G0vFTDpfw8E58-15" value="8: Génère une fiche de prêt" style="html=1;verticalAlign=bottom;endArrow=open;dashed=1;endSize=8;curved=0;rounded=0;" edge="1" parent="1">
          <mxGeometry x="0.0011" relative="1" as="geometry">
            <mxPoint x="739.5" y="490" as="sourcePoint" />
            <mxPoint x="459.81034482758605" y="490" as="targetPoint" />
            <mxPoint as="offset" />
          </mxGeometry>
        </mxCell>
        <mxCell id="h8FOu51G0vFTDpfw8E58-16" value="9: Retire le document du stock" style="html=1;verticalAlign=bottom;endArrow=open;dashed=1;endSize=8;curved=0;rounded=0;" edge="1" parent="1">
          <mxGeometry relative="1" as="geometry">
            <mxPoint x="739.5" y="520" as="sourcePoint" />
            <mxPoint x="459.81034482758605" y="520" as="targetPoint" />
          </mxGeometry>
        </mxCell>
        <mxCell id="h8FOu51G0vFTDpfw8E58-17" value="Scénario &quot;Happy day&quot;" style="text;strokeColor=none;align=center;fillColor=none;html=1;verticalAlign=middle;whiteSpace=wrap;rounded=0;" vertex="1" parent="1">
          <mxGeometry x="520" y="90" width="160" height="30" as="geometry" />
        </mxCell>
        <mxCell id="h8FOu51G0vFTDpfw8E58-18" value="personnel" style="shape=umlLifeline;perimeter=lifelinePerimeter;whiteSpace=wrap;html=1;container=1;dropTarget=0;collapsible=0;recursiveResize=0;outlineConnect=0;portConstraint=eastwest;newEdgeStyle={&quot;curved&quot;:0,&quot;rounded&quot;:0};participant=umlActor;" vertex="1" parent="1">
          <mxGeometry x="450" y="600" width="20" height="480" as="geometry" />
        </mxCell>
        <mxCell id="h8FOu51G0vFTDpfw8E58-19" value=":système" style="shape=umlLifeline;perimeter=lifelinePerimeter;whiteSpace=wrap;html=1;container=1;dropTarget=0;collapsible=0;recursiveResize=0;outlineConnect=0;portConstraint=eastwest;newEdgeStyle={&quot;curved&quot;:0,&quot;rounded&quot;:0};" vertex="1" parent="1">
          <mxGeometry x="690" y="600" width="100" height="480" as="geometry" />
        </mxCell>
        <mxCell id="h8FOu51G0vFTDpfw8E58-20" value="10: Apelle création client" style="html=1;verticalAlign=bottom;endArrow=block;curved=0;rounded=0;" edge="1" parent="1">
          <mxGeometry width="80" relative="1" as="geometry">
            <mxPoint x="460.150344827586" y="670" as="sourcePoint" />
            <mxPoint x="739.84" y="670" as="targetPoint" />
          </mxGeometry>
        </mxCell>
        <mxCell id="h8FOu51G0vFTDpfw8E58-21" value="11: Envoie le formulaire d&#39;inscription" style="html=1;verticalAlign=bottom;endArrow=open;dashed=1;endSize=8;curved=0;rounded=0;" edge="1" parent="1">
          <mxGeometry x="-0.0018" relative="1" as="geometry">
            <mxPoint x="739.75" y="700" as="sourcePoint" />
            <mxPoint x="460.25" y="700" as="targetPoint" />
            <mxPoint as="offset" />
          </mxGeometry>
        </mxCell>
        <mxCell id="h8FOu51G0vFTDpfw8E58-23" value="12: Affiche les erreurs de coordonnées" style="html=1;verticalAlign=bottom;endArrow=open;dashed=1;endSize=8;curved=0;rounded=0;" edge="1" parent="1">
          <mxGeometry relative="1" as="geometry">
            <mxPoint x="739.84" y="760" as="sourcePoint" />
            <mxPoint x="460.150344827586" y="760" as="targetPoint" />
          </mxGeometry>
        </mxCell>
        <mxCell id="h8FOu51G0vFTDpfw8E58-24" value="13: Correction" style="html=1;verticalAlign=bottom;endArrow=block;curved=0;rounded=0;" edge="1" parent="1">
          <mxGeometry width="80" relative="1" as="geometry">
            <mxPoint x="460.25" y="790" as="sourcePoint" />
            <mxPoint x="739.75" y="790" as="targetPoint" />
          </mxGeometry>
        </mxCell>
        <mxCell id="h8FOu51G0vFTDpfw8E58-25" value="14: Validation" style="html=1;verticalAlign=bottom;endArrow=block;curved=0;rounded=0;" edge="1" parent="1">
          <mxGeometry width="80" relative="1" as="geometry">
            <mxPoint x="460.25" y="820" as="sourcePoint" />
            <mxPoint x="739.75" y="820" as="targetPoint" />
          </mxGeometry>
        </mxCell>
        <mxCell id="h8FOu51G0vFTDpfw8E58-26" value="Flot Alternatif:&lt;br&gt;L&#39;usager n&#39;est pas enregistré dans le système" style="text;strokeColor=none;align=center;fillColor=none;html=1;verticalAlign=middle;whiteSpace=wrap;rounded=0;" vertex="1" parent="1">
          <mxGeometry x="200" y="660" width="240" height="40" as="geometry" />
        </mxCell>
        <mxCell id="h8FOu51G0vFTDpfw8E58-28" value="Flot Alternatif:&lt;br&gt;Les informations de l&#39;usager son erronées" style="text;strokeColor=none;align=center;fillColor=none;html=1;verticalAlign=middle;whiteSpace=wrap;rounded=0;" vertex="1" parent="1">
          <mxGeometry x="200" y="740" width="240" height="40" as="geometry" />
        </mxCell>
        <mxCell id="h8FOu51G0vFTDpfw8E58-29" value="Flot Alternatif:&lt;br&gt;L&#39;usager ne possède pas de carte de lecteur" style="text;strokeColor=none;align=center;fillColor=none;html=1;verticalAlign=middle;whiteSpace=wrap;rounded=0;" vertex="1" parent="1">
          <mxGeometry x="200" y="880" width="240" height="40" as="geometry" />
        </mxCell>
        <mxCell id="h8FOu51G0vFTDpfw8E58-30" value="15: Apelle création lecteur" style="html=1;verticalAlign=bottom;endArrow=block;curved=0;rounded=0;" edge="1" parent="1">
          <mxGeometry width="80" relative="1" as="geometry">
            <mxPoint x="460.150344827586" y="899.66" as="sourcePoint" />
            <mxPoint x="739.84" y="899.66" as="targetPoint" />
          </mxGeometry>
        </mxCell>
        <mxCell id="h8FOu51G0vFTDpfw8E58-31" value="16: Envoie formulaire d&#39;incription lecteur" style="html=1;verticalAlign=bottom;endArrow=open;dashed=1;endSize=8;curved=0;rounded=0;" edge="1" parent="1">
          <mxGeometry relative="1" as="geometry">
            <mxPoint x="739.75" y="930" as="sourcePoint" />
            <mxPoint x="460.25" y="930" as="targetPoint" />
          </mxGeometry>
        </mxCell>
      </root>
    </mxGraphModel>
  </diagram>
</mxfile>
